<svg version="1.0" xmlns="http://www.w3.org/2000/svg" width="1261.333" height="1261.333" viewBox="0 0 946 946"><path d="M447.5.6c-57 4.3-101.3 13.9-147.5 32.1C210.5 68 133.7 130.1 79.6 210.8 40.9 268.5 16 332.6 5.6 401 1.4 428.6.5 440.9.5 473s.9 44.4 5.1 72c10.4 68.4 35.3 132.5 74 190.2 35.5 52.9 78.3 95.7 131.2 131.2 65.6 43.9 137.6 69.5 219.2 77.8 16.3 1.6 69.7 1.6 86 0 81.6-8.3 153.6-33.9 219.2-77.8C837.6 797.8 907.9 695.2 934.9 575c7.6-34 10.6-62.6 10.6-102 0-32.1-.9-44.4-5.1-72-15.3-100.9-62.9-193.4-136.5-265.6-23-22.5-41.7-37.7-68.7-55.8-64.3-43.1-134.8-68.5-213.9-77.2-13-1.4-62.8-2.6-73.8-1.8z"/></svg>