<?xml version="1.0" standalone="no"?>
<!DOCTYPE svg PUBLIC "-//W3C//DTD SVG 20010904//EN"
 "http://www.w3.org/TR/2001/REC-SVG-20010904/DTD/svg10.dtd">
<svg version="1.0" xmlns="http://www.w3.org/2000/svg"
 width="946.000000pt" height="946.000000pt" viewBox="0 0 946.000000 946.000000"
 preserveAspectRatio="xMidYMid meet">
<metadata>
Created by potrace 1.11, written by Peter Selinger 2001-2013
</metadata>
<g transform="translate(0.000000,946.000000) scale(0.100000,-0.100000)"
fill="#000000" stroke="none">
<path d="M4475 9454 c-570 -43 -1013 -139 -1475 -321 -895 -353 -1663 -974
-2204 -1781 -387 -577 -636 -1218 -740 -1902 -42 -276 -51 -399 -51 -720 0
-321 9 -444 51 -720 104 -684 353 -1325 740 -1902 355 -529 783 -957 1312
-1312 656 -439 1376 -695 2192 -778 163 -16 697 -16 860 0 816 83 1536 339
2192 778 1024 686 1727 1712 1997 2914 76 340 106 626 106 1020 0 321 -9 444
-51 720 -153 1009 -629 1934 -1365 2656 -230 225 -417 377 -687 558 -643 431
-1348 685 -2139 772 -130 14 -628 26 -738 18z"/>
</g>
</svg>
